<svg width="24px" height="24px" viewBox="0 0 24 24" fill="none" xmlns="http://www.w3.org/2000/svg">
<path d="M8.99708 4.74111C9.34617 4.12836 9.99716 3.75001 10.7024 3.75C11.9378 3.74999 12.8659 4.87768 12.6284 6.09001L11.963 9.48587C11.9601 9.50042 11.9616 9.50931 11.9637 9.51569C11.9661 9.52355 11.9712 9.53276 11.9795 9.5413C11.9879 9.54984 11.997 9.5551 12.0048 9.55774C12.0111 9.55988 12.02 9.5616 12.0346 9.55906L15.4504 8.96579C17.3966 8.62777 19.1101 10.2789 18.8444 12.2363C18.8129 12.4681 18.7537 12.6952 18.6681 12.9129L16.964 17.2435C16.5467 18.3039 15.6806 19.1246 14.5992 19.4843C13.0544 19.9981 11.4152 20.1648 9.79856 19.9725L7.68151 19.7207C6.4173 19.5703 5.42383 18.5679 5.28477 17.3024L4.93163 14.0887C4.79921 12.8837 5.05103 11.6677 5.65111 10.6143L8.99708 4.74111Z" fill="black"/>
</svg>
